<?xml version="1.0" ?><!DOCTYPE svg  PUBLIC '-//W3C//DTD SVG 1.1//EN'  'http://www.w3.org/Graphics/SVG/1.1/DTD/svg11.dtd'><svg enable-background="new 0 0 24 24" height="24px" id="Layer_1" version="1.1" viewBox="0 0 24 24" width="24px" xml:space="preserve" xmlns="http://www.w3.org/2000/svg" xmlns:xlink="http://www.w3.org/1999/xlink"><g><g><path d="M19.7,23.5H4.3c-2.1,0-3.8-1.7-3.8-3.8V4.3c0-2.1,1.7-3.8,3.8-3.8h15.3c2.1,0,3.8,1.7,3.8,3.8v15.3    C23.5,21.8,21.8,23.5,19.7,23.5z M4.3,1.5c-1.6,0-2.8,1.3-2.8,2.8v15.3c0,1.6,1.3,2.8,2.8,2.8h15.3c1.6,0,2.8-1.3,2.8-2.8V4.3    c0-1.6-1.3-2.8-2.8-2.8H4.3z"/></g><g><g><g><path d="M18.7,18H5.3c-0.3,0-0.5-0.2-0.5-0.5v-7.3c0-0.2,0.1-0.3,0.2-0.4c0.2-0.1,0.3-0.1,0.5,0l6.4,3.7l6.4-3.7      c0.2-0.1,0.3-0.1,0.5,0c0.2,0.1,0.2,0.3,0.2,0.4v7.3C19.2,17.7,18.9,18,18.7,18z M5.8,17h12.3v-6l-5.9,3.4      c-0.2,0.1-0.3,0.1-0.5,0L5.8,11V17z"/></g><g><path d="M18.7,8.7c-0.3,0-0.5-0.2-0.5-0.5V7H5.8v1.2c0,0.3-0.2,0.5-0.5,0.5S4.8,8.5,4.8,8.2V6.5C4.8,6.3,5.1,6,5.3,6h13.3      c0.3,0,0.5,0.2,0.5,0.5v1.7C19.2,8.5,18.9,8.7,18.7,8.7z"/></g></g><g><g><path d="M6,18c-0.1,0-0.2,0-0.3-0.1c-0.2-0.2-0.3-0.5-0.1-0.7l3.8-4.7c0.2-0.2,0.5-0.3,0.7-0.1c0.2,0.2,0.3,0.5,0.1,0.7      l-3.8,4.7C6.3,17.9,6.1,18,6,18z"/></g><g><path d="M18,18c-0.1,0-0.3-0.1-0.4-0.2L13.8,13c-0.2-0.2-0.1-0.5,0.1-0.7c0.2-0.2,0.5-0.1,0.7,0.1l3.8,4.7      c0.2,0.2,0.1,0.5-0.1,0.7C18.2,17.9,18.1,18,18,18z"/></g></g></g></g></svg>