<?xml version="1.0" ?><svg height="60px" version="1.1" viewBox="0 0 60 60" width="60px" xmlns="http://www.w3.org/2000/svg" xmlns:xlink="http://www.w3.org/1999/xlink"><title/><desc/><defs/><g fill="none" fill-rule="evenodd" id="Page-1" stroke="none" stroke-width="1"><g id="Whatsapp" stroke="#000000" stroke-width="2" transform="translate(1.000000, 1.000000)"><path d="M42.3425,38.414 C42.9005,36.835 42.9005,35.492 42.7375,35.208 C42.5735,34.919 42.1255,34.76 41.4475,34.418 C40.7685,34.076 37.4655,32.449 36.8445,32.232 C36.2335,32.001 35.6455,32.083 35.1835,32.733 C34.5335,33.643 33.8935,34.567 33.3785,35.126 C32.9735,35.559 32.3045,35.612 31.7515,35.381 C30.9995,35.073 28.9105,34.336 26.3305,32.04 C24.3325,30.263 22.9745,28.049 22.5795,27.38 C22.1895,26.701 22.5415,26.306 22.8545,25.94 C23.1915,25.521 23.5185,25.223 23.8605,24.828 C24.1975,24.433 24.3895,24.231 24.6065,23.769 C24.8375,23.321 24.6735,22.859 24.5105,22.517 C24.3465,22.18 22.9885,18.863 22.4305,17.52 C21.9825,16.446 21.6455,16.403 20.9665,16.379 C20.7355,16.364 20.4755,16.35 20.1915,16.35 C19.3105,16.35 18.3865,16.61 17.8285,17.178 C17.1495,17.871 15.4645,19.489 15.4645,22.801 C15.4645,26.118 17.8805,29.325 18.2085,29.772 C18.5505,30.22 22.9215,37.124 29.7095,39.935 C35.0245,42.135 36.5995,41.933 37.8075,41.673 C39.5745,41.293 41.7845,39.988 42.3425,38.414 L42.3425,38.414 Z M28.8965,5.783 C41.6345,5.783 52.0005,16.148 52.0005,28.891 C52.0005,41.63 41.6345,52 28.8965,52 C24.1975,52 19.8405,50.599 16.1865,48.182 L7.3035,51.018 L10.1825,42.434 C7.4095,38.631 5.7825,33.941 5.7825,28.886 C5.7825,22.517 8.3725,16.74 12.5565,12.556 C16.7395,8.373 22.5125,5.783 28.8815,5.783 L28.8965,5.783 L28.8965,5.783 Z" id="Stroke-28"/><path d="M54,58 L4,58 C1.791,58 0,56.209 0,54 L0,4 C0,1.791 1.791,0 4,0 L54,0 C56.209,0 58,1.791 58,4 L58,54 C58,56.209 56.209,58 54,58 L54,58 Z" id="Stroke-117" stroke-linejoin="round"/></g></g></svg>